<svg width="135" height="34" viewBox="0 0 135 34" fill="none" xmlns="http://www.w3.org/2000/svg">
<path fill-rule="evenodd" clip-rule="evenodd" d="M17.63 0C7.99994 0 0.200012 7.79992 0.200012 17.43C0.200012 25.1428 5.18935 31.6572 12.1178 33.9667C12.9893 34.1192 13.3161 33.5963 13.3161 33.1388C13.3161 32.7248 13.2943 31.3522 13.2943 29.8924C8.91501 30.6986 7.78206 28.8249 7.43346 27.8444C7.23737 27.3433 6.38766 25.7964 5.64689 25.3824C5.03684 25.0556 4.16534 24.2495 5.6251 24.2277C6.99771 24.2059 7.97815 25.4914 8.30496 26.0143C9.87366 28.6506 12.3792 27.9098 13.3814 27.4522C13.534 26.3193 13.9915 25.5567 14.4926 25.121C10.6144 24.6852 6.56196 23.1819 6.56196 16.5149C6.56196 14.6194 7.23737 13.0507 8.34854 11.8306C8.17424 11.3949 7.56419 9.60828 8.52284 7.21166C8.52284 7.21166 9.9826 6.75412 13.3161 8.99823C14.7105 8.60606 16.192 8.40997 17.6736 8.40997C19.1551 8.40997 20.6367 8.60606 22.0311 8.99823C25.3646 6.73234 26.8243 7.21166 26.8243 7.21166C27.783 9.60828 27.1729 11.3949 26.9986 11.8306C28.1098 13.0507 28.7852 14.5976 28.7852 16.5149C28.7852 23.2037 24.7109 24.6852 20.8328 25.121C21.4646 25.6657 22.0093 26.7115 22.0093 28.3455C22.0093 30.6768 21.9875 32.5505 21.9875 33.1388C21.9875 33.5963 22.3143 34.141 23.1858 33.9667C26.646 32.7986 29.6527 30.5748 31.7828 27.6083C33.9129 24.6418 35.0591 21.082 35.06 17.43C35.06 7.79992 27.2601 0 17.63 0Z" fill="black" fill-opacity="0.7"/>
<path d="M81.4557 25.843H81.4151C81.4334 25.843 81.4456 25.8633 81.4639 25.8654H81.4761L81.4557 25.845V25.843ZM81.4639 25.8654C81.2748 25.8674 80.7989 25.9671 80.2967 25.9671C78.7105 25.9671 78.1615 25.235 78.1615 24.2793V17.9124H81.3947C81.5778 17.9124 81.7201 17.7497 81.7201 17.526V14.0691C81.7201 13.886 81.5574 13.7234 81.3947 13.7234H78.1615V9.43267C78.1615 9.26999 78.0598 9.16832 77.8768 9.16832H73.4844C73.3014 9.16832 73.1997 9.26999 73.1997 9.43267V13.8454C73.1997 13.8454 70.9832 14.3944 70.8409 14.4147C70.6782 14.4554 70.5765 14.5978 70.5765 14.7604V17.526C70.5765 17.7497 70.7392 17.9124 70.9222 17.9124H73.1794V24.5822C73.1794 29.544 76.6364 30.0524 78.9952 30.0524C80.073 30.0524 81.3744 29.7067 81.5778 29.605C81.6998 29.5643 81.7608 29.422 81.7608 29.2796V26.2294C81.7636 26.1429 81.7351 26.0582 81.6806 25.991C81.626 25.9238 81.5491 25.8785 81.4639 25.8633V25.8654ZM129.65 21.3897C129.65 17.709 128.165 17.221 126.599 17.3837C125.379 17.465 124.403 18.075 124.403 18.075V25.233C124.403 25.233 125.4 25.9244 126.884 25.965C128.979 26.026 129.65 25.2736 129.65 21.3897ZM134.591 21.0643C134.591 28.0392 132.334 30.032 128.389 30.032C125.054 30.032 123.265 28.3442 123.265 28.3442C123.265 28.3442 123.183 29.2796 123.081 29.4016C123.02 29.5236 122.919 29.5643 122.797 29.5643H119.787C119.584 29.5643 119.401 29.4016 119.401 29.2186L119.442 6.62644C119.442 6.44343 119.604 6.28075 119.787 6.28075H124.119C124.302 6.28075 124.464 6.44343 124.464 6.62644V14.2927C124.464 14.2927 126.132 13.215 128.572 13.215L128.552 13.1743C130.992 13.1743 134.591 14.0894 134.591 21.0643ZM116.859 13.7234H112.589C112.365 13.7234 112.243 13.886 112.243 14.1097V25.172C112.243 25.172 111.125 25.965 109.599 25.965C108.074 25.965 107.627 25.2736 107.627 23.7485V14.0894C107.627 13.9064 107.464 13.7437 107.281 13.7437H102.93C102.746 13.7437 102.584 13.9064 102.584 14.0894V24.4806C102.584 28.9543 105.085 30.0727 108.522 30.0727C111.348 30.0727 113.646 28.5069 113.646 28.5069C113.646 28.5069 113.748 29.3 113.809 29.422C113.849 29.5236 113.992 29.605 114.134 29.605H116.859C117.083 29.605 117.205 29.4423 117.205 29.2593L117.245 14.0691C117.245 13.886 117.083 13.7234 116.859 13.7234ZM68.665 13.703H64.3337C64.1507 13.703 63.988 13.886 63.988 14.1097V29.0356C63.988 29.4423 64.2523 29.5847 64.598 29.5847H68.5024C68.9091 29.5847 69.0107 29.4016 69.0107 29.0356V14.0487C69.0107 13.8657 68.8481 13.703 68.665 13.703ZM66.5299 6.82979C64.9641 6.82979 63.7236 8.07023 63.7236 9.63602C63.7236 11.2018 64.9641 12.4423 66.5299 12.4423C68.055 12.4423 69.2954 11.2018 69.2954 9.63602C69.2954 8.07023 68.055 6.82979 66.5299 6.82979ZM100.062 6.32142H95.7716C95.5886 6.32142 95.4259 6.4841 95.4259 6.66711V14.9841H88.695V6.66711C88.695 6.4841 88.5323 6.32142 88.3493 6.32142H84.018C83.835 6.32142 83.6723 6.4841 83.6723 6.66711V29.2593C83.6723 29.4423 83.8553 29.605 84.018 29.605H88.3493C88.5323 29.605 88.695 29.4423 88.695 29.2593V19.6002H95.4259L95.3852 29.2593C95.3852 29.4423 95.5479 29.605 95.7309 29.605H100.062C100.245 29.605 100.408 29.4423 100.408 29.2593V6.66711C100.408 6.4841 100.245 6.32142 100.062 6.32142ZM61.6901 16.3262V27.9985C61.6901 28.0799 61.6698 28.2222 61.5681 28.2629C61.5681 28.2629 59.0263 30.0727 54.8372 30.0727C49.7738 30.0727 43.775 28.4866 43.775 18.0344C43.775 7.58219 49.0214 5.42668 54.1459 5.44702C58.5789 5.44702 60.3684 6.44343 60.653 6.62644C60.7344 6.72812 60.7751 6.80946 60.7751 6.91114L59.921 10.5308C59.921 10.7138 59.738 10.9375 59.5143 10.8765C58.7822 10.6528 57.6841 10.2054 55.1016 10.2054C52.1124 10.2054 48.8994 11.0595 48.8994 17.7904C48.8994 24.5212 51.9497 25.3143 54.1459 25.3143C56.0167 25.3143 56.6877 25.0906 56.6877 25.0906V20.4136H53.6985C53.4748 20.4136 53.3121 20.2509 53.3121 20.0679V16.3262C53.3121 16.1432 53.4748 15.9805 53.6985 15.9805H61.3038C61.5275 15.9805 61.6901 16.1432 61.6901 16.3262Z" fill="black" fill-opacity="0.7"/>
</svg>
