<svg width="173" height="50" viewBox="0 0 173 50" fill="none" xmlns="http://www.w3.org/2000/svg">
<g clip-path="url(#clip0_2238_142)">
<path d="M39.0514 2.5H63.3239C65.0906 2.5 66.0722 2.96166 66.4615 3.50684L66.5309 3.61719C66.6453 3.82203 66.7617 4.10734 66.8551 4.44141L66.9401 4.79102V4.79199C66.9963 5.06151 67.046 5.42742 67.0719 5.77539L67.0895 6.11328C67.093 6.25449 67.1031 6.38066 67.1168 6.49805C67.1247 6.56543 67.1339 6.63051 67.1403 6.67188L67.1393 7.90234C67.1375 8.21588 67.1564 8.49076 67.1686 8.67578C67.1815 8.87183 67.1891 8.99894 67.1891 9.14453C67.1891 10.0281 67.202 10.8766 67.2145 11.7061C67.2208 12.1234 67.2274 12.5362 67.2321 12.9512L67.2399 14.208L67.1891 22.4033V22.418C67.1891 22.567 67.1822 22.6862 67.1696 22.875C67.1633 22.9689 67.1551 23.0822 67.149 23.2129L67.1393 23.6543V23.6562C67.1434 24.7932 67.1278 25.4761 66.9869 26.3711L66.9186 26.7705C66.7657 27.599 66.4254 28.1004 66.0221 28.3809C65.6618 28.6294 64.6449 28.9648 63.3209 28.9648H39.0475C37.5695 28.9644 36.7744 28.6575 36.3463 28.3252C35.9972 28.0542 35.6137 27.5522 35.4371 26.4355L35.4049 26.2031C35.3075 25.413 35.2834 24.4951 35.2809 23.5215L35.2838 22.5312C35.2856 22.2066 35.2669 21.9228 35.2545 21.7197C35.2415 21.5063 35.233 21.3589 35.233 21.1904C35.233 20.2755 35.2243 19.3271 35.2155 18.4043C35.2065 17.4765 35.1979 16.5752 35.1979 15.7334C35.1979 14.8916 35.2065 13.9903 35.2155 13.0625C35.2243 12.1397 35.233 11.1913 35.233 10.2764C35.233 9.86531 35.2447 9.46253 35.2574 9.0127C35.2699 8.57235 35.2838 8.08859 35.2838 7.57129C35.2838 6.45064 35.3197 5.47991 35.5074 4.6582C35.6662 3.96368 35.8964 3.54229 36.1686 3.27246L36.2877 3.16602L36.2897 3.16504C36.7013 2.83187 37.8195 2.5 39.0514 2.5Z" stroke="#0C0C0C" stroke-width="5"/>
<path fill-rule="evenodd" clip-rule="evenodd" d="M159.568 0.442185V31.0219C159.568 31.1358 159.603 31.1696 159.718 31.1696H163.797V20.0592H165.488C165.663 20.0592 165.673 20.299 165.757 20.6284C165.822 20.8863 165.875 21.0971 165.936 21.3369L168.522 31.1696H173C172.977 30.8947 170.294 21.7232 170.033 20.8283C169.956 20.5703 169.892 20.3365 169.822 20.1016C169.757 19.88 169.636 19.5506 169.617 19.3205C170.134 19.2018 170.855 18.5381 171.187 18.1203C172.828 16.0627 172.552 12.2053 172.552 9.29153C172.552 8.94759 172.55 8.60242 172.553 8.25848C172.555 7.87578 172.501 7.68079 172.502 7.27629C172.513 4.43874 171.909 1.52005 168.741 0.669868C167.629 0.371942 166.335 0.294434 164.943 0.294434H159.721C159.605 0.294434 159.571 0.328344 159.571 0.442185H159.568ZM165.14 16.3714H163.797V4.03182C166.603 4.03182 168.282 3.75812 168.274 7.03045C168.273 7.41678 168.325 7.62993 168.325 7.96297V12.3906C168.325 12.7297 168.273 12.9732 168.274 13.3717C168.28 15.6182 167.581 16.3703 165.14 16.3703V16.3714Z" fill="#0C0C0C"/>
<path fill-rule="evenodd" clip-rule="evenodd" d="M142.507 31.1696H146.835C146.887 30.5593 146.998 29.8665 147.032 29.2512L147.211 27.3148C147.259 26.9805 147.254 26.6959 147.29 26.3605L147.581 23.4515H152.107L152.463 27.3281C152.525 27.9179 152.627 28.6397 152.654 29.2525C152.681 29.8629 152.803 30.5701 152.852 31.1696H156.534C157.235 31.172 157.206 31.2956 157.115 30.644C156.814 28.4859 156.605 26.3338 156.305 24.1684C156.201 23.4151 156.118 22.7042 156.036 21.9764C155.872 20.5315 155.675 19.0637 155.498 17.6407C155.317 16.1765 155.168 14.7668 154.964 13.3026C154.667 11.1808 154.453 8.9718 154.161 6.81972C154.059 6.07248 153.964 5.37127 153.893 4.62646L153.491 1.38562C153.454 1.09253 153.358 0.591148 153.352 0.294434H146.437C146.232 0.294434 146.294 0.472462 146.271 0.67229L145.377 7.9C145.038 10.4384 144.752 13.1076 144.413 15.6484C144.239 16.9552 144.112 18.1978 143.935 19.5021C143.765 20.7616 143.598 22.1144 143.452 23.4006L142.507 31.1684V31.1696ZM150.365 4.03182C150.365 4.2595 150.399 4.7524 150.436 4.99463L150.892 10.9362C150.937 11.2292 150.955 11.6579 150.962 11.9487C150.968 12.1872 151.001 12.1739 151.012 12.3906C151.098 14.1346 151.417 16.1026 151.511 17.7969L151.708 19.7649H147.977L148.631 12.9878C148.794 11.4679 148.897 9.5616 149.019 8.01142L149.219 5.014C149.224 4.79722 149.276 4.21832 149.32 4.03182H150.365Z" fill="#0C0C0C"/>
<path fill-rule="evenodd" clip-rule="evenodd" d="M0.00245056 31.1694H4.33015C4.3816 30.5578 4.47228 29.8603 4.52497 29.2474C4.62421 28.0739 4.81781 26.4559 4.87908 25.3695C4.91338 24.7543 5.02488 24.0616 5.07634 23.4512H9.60253C9.60253 23.7697 9.65399 24.1342 9.6883 24.3995L10.3487 31.1706H14.0295C14.7291 31.173 14.6998 31.3039 14.6115 30.6438L12.9929 17.6417C12.8115 16.1811 12.6645 14.7678 12.4586 13.3024C12.2528 11.8382 12.1242 10.4345 11.9171 8.97035C11.7112 7.50495 11.5642 6.09162 11.3829 4.63106L10.845 0.29541H3.93071C3.70648 0.29541 3.77019 0.684167 3.70403 1.15286L3.34257 4.04128C3.18205 5.34076 3.04728 6.59423 2.86348 7.89492C2.33907 11.6226 1.9335 15.7233 1.42745 19.5043C1.00473 22.6676 0.665328 26.0501 0.226678 29.1832L0 31.1706L0.00245056 31.1694ZM6.91672 4.03159H7.86141C7.86141 4.67587 8.00232 5.36862 8.01089 5.99838C8.01457 6.24059 8.03908 6.70928 8.07339 6.96844L9.20432 19.7647H5.47333L5.85685 15.8662C5.94139 15.2038 5.94752 14.5934 6.04187 13.9346L6.21953 11.9472C6.30898 10.0954 6.5185 7.83557 6.66431 5.94629L6.76601 4.42398C6.76355 4.21567 6.7121 4.03159 6.91672 4.03159Z" fill="#0C0C0C"/>
<path fill-rule="evenodd" clip-rule="evenodd" d="M121.915 31.1696H125.995C126.108 31.1696 126.144 31.1358 126.144 31.0219V0.442185C126.144 0.328344 126.109 0.294434 125.995 0.294434H121.915V31.1696Z" fill="#0C0C0C"/>
<path fill-rule="evenodd" clip-rule="evenodd" d="M129.725 31.1694H140.916V27.4332H133.952V0.29541H129.725V31.1694Z" fill="#0C0C0C"/>
<path fill-rule="evenodd" clip-rule="evenodd" d="M88.7386 12.7332L88.8366 25.7631C88.8721 26.9524 89.236 28.396 89.9222 29.4097C90.2837 29.9426 90.601 30.2041 91.145 30.5602C91.988 31.1113 93.413 31.408 94.9005 31.4636H95.9335C97.4554 31.4067 98.9162 31.1003 99.7607 30.559C99.9921 30.4112 100.111 30.341 100.317 30.1738C100.703 29.8614 100.94 29.5623 101.215 29.1433C101.71 28.3863 101.987 27.3738 102.128 26.2609C102.331 24.6574 102.219 21.4831 102.219 19.8119H97.9909V25.3187C97.9909 27.1111 97.3144 28.023 95.5034 28.023C92.7698 28.023 93.0038 26.0066 93.0172 23.6958C93.0197 23.3507 92.9658 23.2283 92.9646 22.911L92.967 20.3521C92.8396 18.0159 92.9168 14.5582 92.9168 12.1421L92.9658 8.65061C92.9634 8.24611 93.0161 7.96876 93.0161 7.52067C93.0161 7.13313 93.0026 6.72378 93.0148 6.33866L93.0932 5.23658C93.375 3.71426 94.5121 3.31217 95.9886 3.50111C96.2973 3.54107 96.6441 3.65128 96.8867 3.79298C97.7761 4.31253 97.8412 5.2826 97.8412 6.38953L97.7907 11.4531H102.019C102.019 10.9819 102.07 10.7021 102.07 10.2238C102.07 8.15528 102.226 5.58779 101.677 3.72758C101.479 3.05301 101.257 2.60369 100.886 2.05145C100.619 1.65179 100.413 1.50161 100.092 1.21459C99.7248 0.88518 98.9045 0.561822 98.4389 0.39106C96.997 -0.140603 93.9019 -0.135758 92.3422 0.461303C91.5911 0.748328 90.8411 1.15646 90.3389 1.77532C90.2764 1.85162 90.2384 1.8819 90.1759 1.95819C89.2581 3.06754 88.8575 4.61288 88.8427 6.09766C88.8403 6.37015 88.7924 6.41011 88.7889 6.68382L88.741 12.7332H88.7386Z" fill="#0C0C0C"/>
<path fill-rule="evenodd" clip-rule="evenodd" d="M72.5232 7.17782C72.5232 9.89669 72.2806 13.0903 73.7755 15.2811C74.4151 16.2185 75.7518 16.8785 76.8288 17.1789C77.586 17.3908 78.3041 17.5664 79.0785 17.7578C79.8455 17.9467 80.5696 18.0994 80.9935 18.6673C81.8353 19.7924 81.7741 22.1916 81.7741 23.6969C81.7741 25.218 81.8292 27.1739 80.5647 27.7625C79.8308 28.104 78.3531 28.0762 77.6535 27.622C77.254 27.3629 77.0665 27.0625 76.9048 26.5926C76.6377 25.8175 76.6537 23.422 76.6511 22.4193L76.7002 20.6486C76.699 20.3011 76.7516 20.1387 76.7516 19.7645H72.8725C72.6433 19.7645 72.7352 20.0226 72.7193 20.2526L72.6212 21.5328C72.5722 23.1714 72.5882 25.8696 72.9337 27.3229C73.7792 30.8835 76.2322 31.4648 79.6862 31.4648C81.4494 31.4648 83.7015 30.9404 84.651 29.5392C85.1803 28.758 85.467 28.1512 85.668 27.1522C86.0308 25.344 85.9535 23.3457 85.9535 21.4371C85.9535 19.6471 85.6349 18.0061 85.026 16.7986C83.2935 13.3652 78.2306 14.4358 77.2981 12.6386C76.8104 11.6999 76.7676 10.7565 76.7541 9.68475C76.7505 9.4062 76.7014 9.34443 76.7002 9.04893C76.699 7.75914 76.6255 5.51864 77.0494 4.57279C77.6069 3.32902 79.4068 3.26726 80.327 3.59545L80.9397 3.92365C81.2509 4.15134 81.4653 4.51587 81.5829 4.91068C81.8746 5.89408 81.6748 10.0856 81.6748 11.4565H85.7538C85.7538 10.7917 85.804 10.306 85.804 9.63752C85.804 7.03976 86.0552 3.57971 84.3741 1.70981C82.9577 0.134194 80.8416 0.000976562 78.7905 0.000976562C77.7466 0.000976562 76.6708 0.191116 75.8744 0.461186C75.0277 0.748212 74.3587 1.19389 73.8587 1.81154C73.6026 2.12763 73.5488 2.28386 73.3858 2.57209C72.6788 3.81708 72.5244 5.67729 72.5244 7.17782H72.5232Z" fill="#0C0C0C"/>
<path fill-rule="evenodd" clip-rule="evenodd" d="M16.5156 6.93221C16.5156 9.56993 16.2522 12.9259 17.5999 15.0549C19.417 17.9264 23.8538 17.1695 25.0301 18.7233C25.3743 19.1774 25.5839 20.1402 25.661 20.8535L25.7174 22.1736C25.715 22.8276 25.8253 23.6729 25.7309 24.3499C25.6917 24.6333 25.7419 24.9288 25.7101 25.2146C25.5238 26.8592 25.3805 27.954 23.2742 28.0038C21.4707 28.0462 20.7122 27.0858 20.6925 25.3709C20.6766 24.012 20.5786 22.4934 20.6913 21.1381C20.7109 20.9032 20.6925 20.5956 20.6925 20.3534C20.6925 20.0566 20.8249 19.7648 20.5946 19.7648H16.7153C16.7153 20.3364 16.6172 20.9686 16.6136 21.2871C16.5879 23.3459 16.4788 26.3385 17.1552 28.1309C17.6956 29.5636 18.5091 30.524 20.0039 31.0181C20.7599 31.2676 21.701 31.4202 22.675 31.4662H23.9089C24.9418 31.4178 25.9392 31.2433 26.7197 30.9333C30.2117 29.5454 29.9446 25.4532 29.9446 21.7812C29.9446 19.4801 29.5734 16.8194 27.9401 15.4534C25.5422 13.4478 21.9889 14.3609 21.168 12.4123C20.559 10.9651 20.6925 8.82149 20.6925 7.12961C20.6925 6.89103 20.6742 6.63913 20.7061 6.40538C20.7342 6.19829 20.722 5.91369 20.755 5.66663C20.8175 5.19068 20.9008 4.85037 21.0896 4.47372C21.2598 4.13461 21.4878 3.86818 21.8516 3.70226C22.8208 3.25901 24.5473 3.32925 25.2493 4.24724C25.8657 5.05262 25.7162 7.22044 25.7162 8.45574C25.7162 9.51301 25.666 10.3995 25.666 11.4544H29.7449C29.7449 8.3867 30.2669 4.05469 28.418 1.8033C27.9291 1.20745 27.2932 0.750867 26.482 0.47232C25.7248 0.211939 24.7924 0.0496542 23.8146 0H22.5402C21.1619 0.0702425 19.8042 0.3718 18.8178 0.949485C18.4233 1.17959 18.1869 1.42786 17.9185 1.73184C16.9076 2.87147 16.5143 4.80313 16.5143 6.93221H16.5156Z" fill="#0C0C0C"/>
<path fill-rule="evenodd" clip-rule="evenodd" d="M105.302 0.441951V31.0217C105.302 31.1355 105.337 31.1694 105.451 31.1694H109.53V17.4043H114.057V31.1694H118.285V0.29541H114.057V13.6681H109.53V0.29541H105.451C105.337 0.29541 105.302 0.32932 105.302 0.443162V0.441951Z" fill="#0C0C0C"/>
</g>
<path d="M127.656 43.1991C127.565 42.9115 127.442 42.654 127.287 42.4265C127.135 42.1959 126.953 42 126.742 41.8389C126.53 41.6746 126.288 41.5498 126.017 41.4645C125.748 41.3791 125.453 41.3365 125.13 41.3365C124.584 41.3365 124.091 41.4771 123.652 41.7583C123.212 42.0395 122.865 42.4518 122.609 42.9953C122.356 43.5355 122.23 44.1975 122.23 44.981C122.23 45.7678 122.358 46.4329 122.614 46.9763C122.87 47.5197 123.22 47.9321 123.666 48.2133C124.111 48.4945 124.618 48.6351 125.187 48.6351C125.715 48.6351 126.175 48.5276 126.566 48.3128C126.961 48.0979 127.266 47.7946 127.481 47.4028C127.699 47.0079 127.808 46.5434 127.808 46.0095L128.187 46.0806H125.41V44.872H129.225V45.9763C129.225 46.7915 129.051 47.4992 128.704 48.0995C128.359 48.6967 127.882 49.158 127.273 49.4834C126.666 49.8088 125.971 49.9716 125.187 49.9716C124.309 49.9716 123.538 49.7694 122.874 49.3649C122.214 48.9605 121.699 48.387 121.329 47.6445C120.96 46.8989 120.775 46.0142 120.775 44.9905C120.775 44.2164 120.882 43.5213 121.097 42.9052C121.312 42.2891 121.614 41.7662 122.002 41.3365C122.394 40.9036 122.854 40.5735 123.382 40.346C123.912 40.1153 124.492 40 125.121 40C125.645 40 126.133 40.0774 126.585 40.2322C127.04 40.387 127.445 40.6066 127.799 40.891C128.156 41.1754 128.451 41.5134 128.685 41.9052C128.919 42.2938 129.077 42.7251 129.159 43.1991H127.656Z" fill="#0C0C0C"/>
<path d="M118.951 40.1328V49.839H117.605L112.672 42.7205H112.582V49.839H111.117V40.1328H112.473L117.411 47.2608H117.501V40.1328H118.951Z" fill="#0C0C0C"/>
<path d="M108.985 40.1328V49.839H107.52V40.1328H108.985Z" fill="#0C0C0C"/>
<path d="M98.3483 41.3935V40.1328H105.86V41.3935H102.832V49.839H101.372V41.3935H98.3483Z" fill="#0C0C0C"/>
<path d="M92.5581 49.839V40.1328H94.0225V48.5783H98.4206V49.839H92.5581Z" fill="#0C0C0C"/>
<path d="M88.9597 40.1328H90.4289V46.5167C90.4289 47.196 90.2694 47.7979 89.9502 48.3224C89.6311 48.8437 89.1825 49.2545 88.6043 49.5546C88.0261 49.8516 87.3483 50.0001 86.5711 50.0001C85.797 50.0001 85.1209 49.8516 84.5427 49.5546C83.9645 49.2545 83.5158 48.8437 83.1967 48.3224C82.8776 47.7979 82.718 47.196 82.718 46.5167V40.1328H84.1825V46.3982C84.1825 46.8374 84.2788 47.2276 84.4716 47.5688C84.6675 47.9101 84.9439 48.1786 85.301 48.3745C85.658 48.5673 86.0814 48.6636 86.5711 48.6636C87.064 48.6636 87.4889 48.5673 87.846 48.3745C88.2062 48.1786 88.481 47.9101 88.6706 47.5688C88.8634 47.2276 88.9597 46.8374 88.9597 46.3982V40.1328Z" fill="#0C0C0C"/>
<path d="M79.423 42.6825C79.3724 42.2338 79.1639 41.8863 78.7974 41.6398C78.4309 41.3902 77.9696 41.2654 77.4135 41.2654C77.0154 41.2654 76.671 41.3286 76.3803 41.455C76.0897 41.5782 75.8638 41.7488 75.7026 41.9668C75.5446 42.1817 75.4656 42.4265 75.4656 42.7014C75.4656 42.9321 75.5194 43.1311 75.6268 43.2986C75.7374 43.466 75.8811 43.6066 76.0581 43.7204C76.2382 43.831 76.4309 43.9242 76.6363 44C76.8416 44.0727 77.0391 44.1327 77.2287 44.1801L78.1765 44.4265C78.4862 44.5024 78.8037 44.6051 79.1291 44.7346C79.4546 44.8641 79.7563 45.0348 80.0344 45.2464C80.3124 45.4581 80.5367 45.7204 80.7074 46.0332C80.8811 46.346 80.968 46.7204 80.968 47.1564C80.968 47.7062 80.8258 48.1943 80.5415 48.6209C80.2603 49.0474 79.8511 49.3839 79.314 49.6303C78.78 49.8768 78.1339 50 77.3756 50C76.6489 50 76.0201 49.8847 75.4893 49.654C74.9585 49.4234 74.5431 49.0964 74.2429 48.673C73.9427 48.2464 73.7769 47.7409 73.7453 47.1564H75.2145C75.2429 47.5071 75.3566 47.7994 75.5557 48.0332C75.7579 48.2638 76.0154 48.436 76.3282 48.5498C76.6442 48.6603 76.9901 48.7156 77.3661 48.7156C77.78 48.7156 78.1481 48.6509 78.4704 48.5213C78.7958 48.3886 79.0517 48.2054 79.2382 47.9716C79.4246 47.7346 79.5178 47.4581 79.5178 47.1422C79.5178 46.8547 79.4356 46.6193 79.2713 46.436C79.1102 46.2528 78.8906 46.1011 78.6126 45.981C78.3377 45.861 78.0265 45.7551 77.6789 45.6635L76.532 45.3507C75.7547 45.139 75.1386 44.8278 74.6837 44.4171C74.2318 44.0063 74.0059 43.4629 74.0059 42.7867C74.0059 42.2275 74.1576 41.7393 74.4609 41.3223C74.7642 40.9052 75.175 40.5814 75.6931 40.3507C76.2113 40.1169 76.7958 40 77.4467 40C78.1039 40 78.6837 40.1153 79.186 40.346C79.6916 40.5766 80.0897 40.8942 80.3803 41.2986C80.671 41.6998 80.8227 42.1611 80.8353 42.6825H79.423Z" fill="#0C0C0C"/>
<path d="M71.9929 40.1328V49.839H70.6469L65.7133 42.7205H65.6232V49.839H64.1588V40.1328H65.5142L70.4526 47.2608H70.5426V40.1328H71.9929Z" fill="#0C0C0C"/>
<path d="M62.3329 44.9858C62.3329 46.0221 62.1434 46.9131 61.7642 47.6588C61.3851 48.4013 60.8653 48.9731 60.205 49.3744C59.5478 49.7725 58.8006 49.9716 57.9633 49.9716C57.1228 49.9716 56.3724 49.7725 55.7121 49.3744C55.0549 48.9731 54.5367 48.3997 54.1576 47.654C53.7784 46.9084 53.5889 46.019 53.5889 44.9858C53.5889 43.9494 53.7784 43.06 54.1576 42.3175C54.5367 41.5719 55.0549 41 55.7121 40.6019C56.3724 40.2006 57.1228 40 57.9633 40C58.8006 40 59.5478 40.2006 60.205 40.6019C60.8653 41 61.3851 41.5719 61.7642 42.3175C62.1434 43.06 62.3329 43.9494 62.3329 44.9858ZM60.8827 44.9858C60.8827 44.1959 60.7547 43.5308 60.4988 42.9905C60.2461 42.4471 59.8985 42.0363 59.4562 41.7583C59.017 41.4771 58.5194 41.3365 57.9633 41.3365C57.404 41.3365 56.9048 41.4771 56.4656 41.7583C56.0265 42.0363 55.6789 42.4471 55.423 42.9905C55.1702 43.5308 55.0438 44.1959 55.0438 44.9858C55.0438 45.7757 55.1702 46.4423 55.423 46.9858C55.6789 47.5261 56.0265 47.9368 56.4656 48.218C56.9048 48.496 57.404 48.6351 57.9633 48.6351C58.5194 48.6351 59.017 48.496 59.4562 48.218C59.8985 47.9368 60.2461 47.5261 60.4988 46.9858C60.7547 46.4423 60.8827 45.7757 60.8827 44.9858Z" fill="#0C0C0C"/>
<path d="M52.1493 43.2891H50.6706C50.6138 42.9731 50.5079 42.6951 50.3531 42.455C50.1983 42.2148 50.0087 42.0111 49.7844 41.8436C49.56 41.6761 49.3089 41.5498 49.0308 41.4645C48.7559 41.3791 48.4637 41.3365 48.154 41.3365C47.5948 41.3365 47.094 41.4771 46.6517 41.7583C46.2125 42.0395 45.8649 42.4518 45.609 42.9953C45.3562 43.5387 45.2299 44.2022 45.2299 44.9858C45.2299 45.7757 45.3562 46.4423 45.609 46.9858C45.8649 47.5292 46.2141 47.94 46.6564 48.218C47.0987 48.496 47.5964 48.6351 48.1493 48.6351C48.4558 48.6351 48.7465 48.594 49.0213 48.5118C49.2994 48.4265 49.5506 48.3017 49.7749 48.1374C49.9992 47.9731 50.1888 47.7725 50.3436 47.5355C50.5016 47.2954 50.6106 47.0205 50.6706 46.7109L52.1493 46.7156C52.0703 47.1927 51.9171 47.6319 51.6896 48.0332C51.4653 48.4313 51.1762 48.7757 50.8223 49.0663C50.4716 49.3539 50.0703 49.5766 49.6185 49.7346C49.1667 49.8926 48.6738 49.9716 48.1398 49.9716C47.2994 49.9716 46.5506 49.7725 45.8934 49.3744C45.2362 48.9731 44.718 48.3997 44.3389 47.654C43.9629 46.9084 43.7749 46.019 43.7749 44.9858C43.7749 43.9494 43.9645 43.06 44.3436 42.3175C44.7228 41.5719 45.2409 41 45.8981 40.6019C46.5553 40.2006 47.3025 40 48.1398 40C48.6548 40 49.1351 40.0742 49.5806 40.2227C50.0292 40.3681 50.4321 40.5829 50.7891 40.8673C51.1461 41.1485 51.4416 41.4929 51.6754 41.9005C51.9092 42.3049 52.0671 42.7678 52.1493 43.2891Z" fill="#0C0C0C"/>
<defs>
<clipPath id="clip0_2238_142">
<rect width="173" height="32" fill="white"/>
</clipPath>
</defs>
</svg>
