<svg width="154" height="20" viewBox="0 0 154 20" fill="none" xmlns="http://www.w3.org/2000/svg">
<path d="M131.631 7.93633V19.9883H135.483V11.9537H149.572V19.9883H153.424V7.93633H131.631ZM135.043 4.02906H149.902C151.993 3.64383 153.479 1.77274 153.919 0.0117188H131.026C131.466 1.77274 133.007 3.5888 135.043 4.02906ZM119.909 19.9883C121.836 19.1629 122.881 17.732 123.321 16.0811H105.986V0.0667508H102.079V19.9883H119.909ZM73.1872 3.97403H86.9452C89.0365 3.36867 90.7425 1.77274 91.1827 0.0667508H69.39V11.8436H87.2204V15.971H73.2423C71.041 16.5764 69.1699 18.0622 68.2344 19.9883H91.0726V7.93633H73.2423L73.1872 3.97403ZM39.2875 4.02906H54.1462C56.2374 3.64383 57.7783 1.77274 58.1635 0.0117188H35.2152C35.6554 1.77274 37.1963 3.5888 39.2875 4.02906ZM39.2875 11.8986H54.1462C56.2374 11.5134 57.7783 9.64233 58.1635 7.8813H35.2152C35.6554 9.64233 37.1963 11.4584 39.2875 11.8986ZM39.2875 19.9883H54.1462C56.2374 19.6031 57.7783 17.732 58.1635 15.971H35.2152C35.6554 17.732 37.1963 19.6031 39.2875 19.9883Z" fill="black" fill-opacity="0.7"/>
<path d="M0.600037 0.0667508C1.04029 1.82778 2.58119 3.5888 4.61737 4.02906H10.891L11.2212 4.13912V19.9333H15.1285V4.13912L15.4587 4.02906H21.7323C23.8235 3.47874 25.3094 1.82778 25.7497 0.0667508V0.0117188L0.600037 0.0667508Z" fill="black" fill-opacity="0.7"/>
</svg>
